<?xml version="1.0"?>
<svg xmlns="http://www.w3.org/2000/svg" xmlns:xlink="http://www.w3.org/1999/xlink" version="1.1" id="Capa_1" x="0px" y="0px" viewBox="0 0 65 65" style="enable-background:new 0 0 65 65;" xml:space="preserve" width="512px" height="512px" class=""><g transform="matrix(1, 0, 0, 1, 0, 0)"><g>
	<g>
		<path d="M32.5,65C50.42,65,65,50.421,65,32.5S50.42,0,32.5,0S0,14.579,0,32.5S14.58,65,32.5,65z M32.5,4    C48.215,4,61,16.785,61,32.5S48.215,61,32.5,61S4,48.215,4,32.5S16.785,4,32.5,4z" data-original="#000000" class="active-path" data-old_color="#8CFF00" fill="#000000"/>
		<circle cx="33.018" cy="43.655" r="3.345" data-original="#000000" class="active-path" data-old_color="#8CFF00" fill="#000000"/>
		<path d="M32.332,35.342c1.104,0,2-0.896,2-2v-17c0-1.104-0.896-2-2-2s-2,0.896-2,2v17C30.332,34.446,31.228,35.342,32.332,35.342z    " data-original="#000000" class="active-path" data-old_color="#8CFF00" fill="#000000"/>
	</g>
</g></g> </svg>
